<svg width="235" height="63" viewBox="0 0 235 63" fill="none" xmlns="http://www.w3.org/2000/svg">
<path d="M59.9586 19.3851H43.4946V3.08713C43.4946 1.82291 42.6707 0.79834 41.6555 0.79834H20.6152C19.5995 0.79834 18.7761 1.82291 18.7761 3.08713V19.3851H2.3121C1.03501 19.3851 0 20.2002 0 21.2057V42.0339C0 43.0398 1.03501 43.8544 2.3121 43.8544H13.4073C14.1577 43.0642 14.8303 42.2137 15.2966 41.2394C15.2174 41.2667 15.112 41.3403 15.0202 41.3728C15.1773 41.0241 15.4435 40.7252 15.6745 40.4191C16.5698 39.2333 17.4937 38.0652 18.2929 36.8125C19.1119 35.5296 19.6174 34.1439 20.2909 32.7921C20.0832 32.8792 19.9058 33.0844 19.6981 33.1834C19.8005 32.7869 20.0605 32.333 20.2402 31.957C20.5171 31.3782 20.7857 30.7669 21.0868 30.2097C20.9674 30.3221 20.8771 30.4747 20.7582 30.5832C20.764 29.7026 21.6366 28.901 21.7797 28.0462C21.6038 28.1079 21.5047 28.3212 21.3839 28.459C21.5758 28.2404 21.5569 27.5272 21.6052 27.2436C21.6811 26.7973 21.7686 26.3419 21.9681 25.931C22.1484 25.5599 22.4706 25.2461 22.7055 24.9002C23.006 24.4578 23.3143 24.0201 23.6361 23.592C24.1198 22.9482 24.746 22.445 25.5578 22.2647C26.7634 21.9963 27.9757 21.7552 29.19 21.529C29.9327 21.3903 30.6671 21.4773 31.3214 21.8676C31.9998 22.2728 32.6714 22.6961 33.3044 23.1668C34.4119 23.9905 35.7422 23.8871 37.0511 23.7762C37.357 23.7499 37.6358 23.7231 37.9368 23.6556C38.3886 23.5538 38.7515 23.6159 39.1859 23.6107C39.5237 23.6068 39.9716 23.5523 40.2204 23.8647C40.3712 24.0546 40.3147 24.8022 40.118 25.0643C40.1277 25.1781 40.1311 25.2891 40.1354 25.3566C40.2422 27.1651 38.7187 28.2767 37.1053 28.724C36.7501 28.8225 36.3694 28.824 36.0031 28.8876C35.9214 28.9019 35.8523 28.988 35.7774 29.0416C35.8523 29.1038 35.9224 29.2119 36.0031 29.2205C36.352 29.2583 36.7032 29.2693 37.054 29.2846C37.2207 29.2918 37.3903 29.2674 37.5537 29.2908C38.3485 29.407 39.025 29.7701 39.5855 30.3273C39.7875 30.5282 39.9378 30.788 40.0769 31.0396C40.1209 31.1194 40.089 31.2931 40.0243 31.3619C39.974 31.4155 39.8141 31.3926 39.7126 31.3667C39.5986 31.3385 39.4971 31.2625 39.3864 31.217C38.938 31.0353 38.91 31.0486 38.7506 31.5054C38.4191 32.4506 37.7044 32.8792 36.7052 32.7481C36.1084 32.6711 35.5097 32.5855 34.9096 32.5582C34.4515 32.5382 34.0901 32.7965 33.862 33.1767C33.7383 33.3819 33.5876 33.458 33.373 33.4795C33.2431 33.4924 33.115 33.5249 32.985 33.5312C32.4028 33.5594 32.1969 34.0478 32.2829 34.5285C32.3748 35.0398 32.7372 35.5277 32.9266 36.0161C33.1469 36.5853 33.3276 37.1765 33.4339 37.7777C33.2846 37.6883 33.0851 37.5936 32.9473 37.4836C33.2015 38.1776 33.303 38.9822 33.5228 39.7016C33.8012 40.6123 34.1384 41.6297 34.1235 42.5926C34.0631 42.5108 33.9601 42.4529 33.8992 42.3768C33.8959 43.3914 34.4008 44.4437 34.6743 45.4066C34.9135 46.2484 35.114 47.163 35.0908 48.0421C35.0725 48.7362 34.8768 49.4073 34.77 50.086C34.697 49.9636 34.6535 49.8191 34.5873 49.6948C33.9645 51.1326 33.1343 52.5685 32.0418 53.7467C32.0186 53.5692 32.079 53.3769 32.0592 53.1913C32.079 53.3779 31.0479 54.2413 30.8904 54.4259C30.5275 54.8497 30.2144 55.3036 29.9066 55.7657C29.2828 56.7027 29.088 57.7522 28.6768 58.781C28.6203 58.5825 28.4768 58.3018 28.4923 58.0588C28.4618 58.5433 27.9453 59.0312 27.8656 59.5373C27.7945 59.9893 27.8085 60.4667 27.7457 60.9321C27.6776 61.4348 27.6336 61.9385 27.6206 62.4417H41.656C42.6717 62.4417 43.4951 61.4166 43.4951 60.1534V43.8554H59.9591C61.2362 43.8554 62.2712 43.0408 62.2712 42.0348V21.2066C62.2702 20.2002 61.2352 19.3851 59.9586 19.3851Z" fill="#F1FAEE"/>
<path d="M66.6857 43.5995C66.4982 43.4139 66.4049 43.1943 66.4049 42.9389V20.4887C66.4049 20.2342 66.4982 20.0142 66.6857 19.8286C66.8727 19.6435 67.095 19.5507 67.3525 19.5507H78.6569C80.6462 19.5507 82.2606 19.8984 83.5015 20.5934C84.7418 21.2884 85.6367 22.1748 86.1871 23.252C86.7369 24.3291 87.0124 25.5053 87.0124 26.7796C87.0124 27.9381 86.807 28.8708 86.3982 29.5773C85.9885 30.2843 85.5381 30.8229 85.0467 31.1931C85.9358 31.7958 86.5678 32.5085 86.9423 33.3303C87.3163 34.153 87.5043 35.1546 87.5043 36.3361C87.5043 38.4909 86.8491 40.2871 85.5386 41.723C84.2277 43.1599 82.1799 43.8779 79.3948 43.8779H67.353C67.0949 43.8774 66.8727 43.7851 66.6857 43.5995ZM72.8996 24.9371V28.8991H78.3414C79.0435 28.8991 79.5755 28.7254 79.9388 28.3777C80.3012 28.0299 80.4829 27.5435 80.4829 26.9183C80.4829 26.2927 80.3012 25.8062 79.9388 25.4585C79.576 25.1107 79.0435 24.9371 78.3414 24.9371H72.8996ZM78.6922 38.4909C79.3943 38.4909 79.9562 38.2944 80.3771 37.9002C80.7984 37.507 81.0091 36.9967 81.0091 36.3715C81.0091 35.7463 80.7984 35.2364 80.3771 34.8423C79.9557 34.4491 79.3943 34.252 78.6922 34.252H72.8996V38.4914L78.6922 38.4909Z" fill="#F1FAEE"/>
<path d="M101.441 32.0617C101.441 30.7875 100.762 30.1503 99.405 30.1503C98.6323 30.1503 98.0008 30.3589 97.5094 30.776C97.3214 30.9616 97.1349 31.0773 96.9474 31.1237C96.7599 31.1706 96.5261 31.1936 96.2453 31.1936H91.7868C91.5525 31.1936 91.3592 31.1237 91.2075 30.985C91.0553 30.8458 90.991 30.6607 91.0147 30.4287C91.0852 29.7112 91.4887 28.9636 92.2261 28.1873C92.9629 27.4114 93.9637 26.7624 95.2277 26.241C96.4913 25.7196 97.8838 25.4589 99.4054 25.4589C102.191 25.4589 104.279 26.0846 105.672 27.3354C107.064 28.5867 107.761 30.2781 107.761 32.409V42.9394C107.761 43.1948 107.667 43.4143 107.48 43.5999C107.292 43.7855 107.07 43.8778 106.813 43.8778H102.389C102.132 43.8778 101.909 43.7855 101.722 43.5999C101.535 43.4143 101.442 43.1948 101.442 42.9394V41.9664C100.833 42.7083 100.108 43.2699 99.2648 43.6516C98.4221 44.0342 97.3572 44.2251 96.0704 44.2251C94.1043 44.2251 92.5653 43.7162 91.4539 42.6959C90.3421 41.6766 89.7864 40.3559 89.7864 38.7344C89.7864 37.1827 90.3948 35.908 91.6119 34.9116C92.8286 33.9157 94.7363 33.1973 97.3344 32.7567L101.441 32.0617ZM98.2115 36.6833C97.5558 36.7996 97.0407 37.0024 96.6667 37.2913C96.2922 37.5811 96.1052 37.9346 96.1052 38.3517C96.1052 39.1391 96.6667 39.5332 97.7901 39.5332C98.8198 39.5332 99.6857 39.2089 100.388 38.5603C101.09 37.9121 101.441 37.1239 101.441 36.1973L98.2115 36.6833Z" fill="#F1FAEE"/>
<path d="M125.067 26.0841C125.255 26.2697 125.348 26.4897 125.348 26.7442V30.2541C125.348 30.5096 125.255 30.7296 125.067 30.9142C124.88 31.1003 124.657 31.1926 124.4 31.1926H121.206C120.153 31.1926 119.35 31.4653 118.801 32.0096C118.25 32.5544 117.976 33.3475 117.976 34.3902V42.9394C117.976 43.1948 117.882 43.4143 117.695 43.5999C117.507 43.7855 117.285 43.8778 117.028 43.8778H112.604C112.347 43.8778 112.125 43.7855 111.937 43.5999C111.75 43.4143 111.656 43.1948 111.656 42.9394V26.7447C111.656 26.4897 111.75 26.2702 111.937 26.0846C112.125 25.8995 112.347 25.8062 112.604 25.8062H116.677C116.934 25.8062 117.156 25.899 117.344 26.0846C117.531 26.2702 117.625 26.4902 117.625 26.7447V27.5439C118.842 26.3859 120.398 25.8062 122.294 25.8062H124.4C124.658 25.8062 124.88 25.899 125.067 26.0841Z" fill="#F1FAEE"/>
<path d="M138.724 26.3969C139.121 26.0033 139.579 25.8062 140.093 25.8062H145.254C145.488 25.8062 145.687 25.8875 145.851 26.0497C146.014 26.2118 146.096 26.4089 146.096 26.6404C146.096 26.7566 146.073 26.8609 146.026 26.9532C145.979 27.046 145.874 27.1733 145.71 27.3354L139.461 34.2166L146.834 42.3836C147.067 42.6385 147.185 42.8585 147.185 43.0437C147.185 43.2756 147.102 43.4727 146.939 43.6344C146.775 43.797 146.576 43.8779 146.342 43.8779H141.112C140.502 43.8779 140.023 43.6813 139.672 43.2871L134.09 37.066V42.9389C134.09 43.1943 133.996 43.4139 133.809 43.5995C133.621 43.7851 133.399 43.8774 133.142 43.8774H128.719C128.461 43.8774 128.239 43.7851 128.051 43.5995C127.864 43.4139 127.771 43.1943 127.771 42.9389V20.1409C127.771 19.8864 127.864 19.6664 128.051 19.4808C128.239 19.2957 128.461 19.2029 128.719 19.2029H133.142C133.399 19.2029 133.621 19.2957 133.809 19.4808C133.996 19.6664 134.09 19.8864 134.09 20.1409V31.4012L138.724 26.3969Z" fill="#F1FAEE"/>
<path d="M153.679 40.298C154.896 41.5259 156.604 42.1401 158.804 42.1401C160.793 42.1401 162.373 41.7349 163.544 40.9237C164.714 40.1134 165.522 38.7229 165.966 36.7532C166.06 36.2667 166.318 36.0237 166.739 36.0237H167.441C167.652 36.0237 167.833 36.0878 167.985 36.2146C168.137 36.3423 168.201 36.5097 168.178 36.7187C168.108 37.9236 167.74 39.0994 167.072 40.2459C166.405 41.3925 165.381 42.3434 164.001 43.0958C162.62 43.8487 160.888 44.2251 158.805 44.2251C155.762 44.2251 153.48 43.3737 151.959 41.6708C150.438 39.9675 149.618 37.6802 149.501 34.8069C149.478 34.1812 149.467 33.1624 149.467 31.7484C149.467 30.312 149.478 29.2693 149.501 28.6207C149.618 25.7483 150.438 23.4595 151.959 21.7567C153.48 20.0538 155.762 19.2024 158.805 19.2024C160.888 19.2024 162.62 19.5793 164.001 20.3317C165.381 21.0846 166.406 22.0346 167.072 23.1816C167.739 24.3286 168.108 25.5044 168.178 26.7093V26.7791C168.178 26.9647 168.108 27.1154 167.967 27.2306C167.827 27.3469 167.652 27.4043 167.441 27.4043H166.739C166.317 27.4043 166.06 27.1608 165.966 26.6744C165.521 24.7056 164.714 23.3155 163.544 22.5038C162.373 21.6931 160.793 21.2879 158.804 21.2879C156.604 21.2879 154.895 21.9021 153.679 23.13C152.461 24.3583 151.806 26.2463 151.713 28.7948C151.689 29.4204 151.678 30.3819 151.678 31.6791C151.678 32.9768 151.689 33.9612 151.713 34.6332C151.806 37.1822 152.462 39.0707 153.679 40.298Z" fill="#F1FAEE"/>
<path d="M177.464 26.1535C178.364 25.6905 179.529 25.4585 180.957 25.4585C183.25 25.4585 185.017 26.1831 186.258 27.6305C187.498 29.0789 188.119 30.9492 188.119 33.2432V43.113C188.119 43.345 188.049 43.5301 187.908 43.6693C187.767 43.808 187.58 43.8779 187.347 43.8779H186.75C186.515 43.8779 186.328 43.808 186.188 43.6693C186.048 43.5301 185.977 43.345 185.977 43.113V33.4169C185.977 31.5404 185.515 30.0805 184.59 29.0378C183.666 27.995 182.338 27.4741 180.606 27.4741C178.921 27.4741 177.575 28.0012 176.569 29.0555C175.562 30.1102 175.059 31.5638 175.059 33.4169V43.113C175.059 43.345 174.989 43.5301 174.849 43.6693C174.708 43.808 174.52 43.8779 174.287 43.8779H173.69C173.456 43.8779 173.269 43.808 173.128 43.6693C172.988 43.5301 172.918 43.345 172.918 43.113V19.9678C172.918 19.7367 172.988 19.5507 173.128 19.4115C173.269 19.2723 173.456 19.2029 173.69 19.2029H174.287C174.52 19.2029 174.708 19.2723 174.849 19.4115C174.989 19.5507 175.059 19.7362 175.059 19.9678V28.2041C175.761 27.3005 176.563 26.6175 177.464 26.1535Z" fill="#F1FAEE"/>
<path d="M204.759 41.4795C204.244 42.2444 203.489 42.893 202.494 43.4258C201.499 43.9582 200.183 44.2251 198.545 44.2251C197.421 44.2251 196.38 43.9936 195.42 43.5301C194.46 43.0666 193.694 42.4414 193.121 41.6531C192.547 40.8658 192.261 39.9972 192.261 39.0472C192.261 37.518 192.886 36.2667 194.139 35.2933C195.391 34.3204 197.082 33.6948 199.212 33.4168L204.759 32.652V31.4356C204.759 30.1618 204.366 29.1827 203.582 28.4992C202.798 27.8161 201.599 27.4741 199.984 27.4741C198.79 27.4741 197.813 27.7056 197.053 28.1691C196.292 28.6331 195.806 29.1889 195.596 29.8375C195.502 30.1154 195.39 30.3068 195.262 30.411C195.133 30.5153 194.964 30.5675 194.753 30.5675H194.261C194.05 30.5675 193.869 30.4924 193.717 30.3412C193.565 30.191 193.489 30.0112 193.489 29.8026C193.489 29.2932 193.722 28.6962 194.191 28.0127C194.659 27.3297 195.385 26.7327 196.367 26.2228C197.351 25.7134 198.556 25.458 199.983 25.458C202.488 25.458 204.266 26.0487 205.32 27.2307C206.373 28.4126 206.9 29.849 206.9 31.5399V43.1125C206.9 43.3445 206.829 43.5296 206.689 43.6688C206.548 43.8075 206.36 43.8774 206.127 43.8774H205.531C205.296 43.8774 205.109 43.8075 204.969 43.6688C204.829 43.5296 204.758 43.3445 204.758 43.1125V41.4795H204.759ZM204.759 34.5639L200.23 35.1895C198.311 35.4449 196.86 35.8845 195.877 36.5102C194.894 37.1363 194.402 37.9236 194.402 38.8736C194.402 39.9398 194.853 40.762 195.754 41.3408C196.654 41.92 197.702 42.2094 198.896 42.2094C200.604 42.2094 202.008 41.6531 203.109 40.5415C204.209 39.4294 204.759 37.8308 204.759 35.7458V34.5639Z" fill="#F1FAEE"/>
<path d="M220.662 25.8062C220.895 25.8062 221.083 25.876 221.224 26.0147C221.364 26.1534 221.434 26.3395 221.434 26.571V27.0575C221.434 27.2895 221.364 27.4746 221.224 27.6138C221.083 27.753 220.895 27.8223 220.662 27.8223H219.152C217.748 27.8223 216.636 28.228 215.818 29.0382C214.998 29.8495 214.589 30.9496 214.589 32.3401V43.113C214.589 43.345 214.512 43.5301 214.36 43.6693C214.208 43.808 214.015 43.8778 213.781 43.8778H213.219C212.986 43.8778 212.798 43.808 212.658 43.6693C212.517 43.5301 212.447 43.345 212.447 43.113V26.6055C212.447 26.374 212.517 26.1831 212.658 26.032C212.798 25.8818 212.986 25.8062 213.219 25.8062H213.781C214.015 25.8062 214.208 25.8818 214.36 26.032C214.512 26.1831 214.589 26.374 214.589 26.6055V28.204C215.431 26.6055 217.023 25.8062 219.363 25.8062H220.662Z" fill="#F1FAEE"/>
<path d="M228.824 40.8716C229.257 41.5317 229.977 41.8617 230.983 41.8617H232.879C233.113 41.8617 233.3 41.9315 233.441 42.0703C233.581 42.2095 233.651 42.395 233.651 42.6266V43.113C233.651 43.345 233.581 43.5301 233.441 43.6693C233.3 43.808 233.113 43.8779 232.879 43.8779H230.808C229.076 43.8779 227.847 43.3627 227.121 42.3314C226.396 41.3011 226.033 39.8814 226.033 38.0743V27.8224H223.295C223.061 27.8224 222.874 27.7525 222.733 27.6138C222.593 27.4746 222.522 27.2895 222.522 27.0575V26.5711C222.522 26.3395 222.593 26.1539 222.733 26.0148C222.874 25.8756 223.061 25.8062 223.295 25.8062H226.033V19.9678C226.033 19.7367 226.104 19.5507 226.244 19.4115C226.385 19.2723 226.572 19.2029 226.806 19.2029H227.402C227.636 19.2029 227.824 19.2723 227.964 19.4115C228.104 19.5507 228.175 19.7362 228.175 19.9678V25.8062H232.528C232.762 25.8062 232.949 25.876 233.09 26.0148C233.231 26.1535 233.301 26.3395 233.301 26.5711V27.0575C233.301 27.2895 233.231 27.4746 233.09 27.6138C232.949 27.753 232.762 27.8224 232.528 27.8224H228.175V37.9356C228.174 39.2324 228.39 40.211 228.824 40.8716Z" fill="#F1FAEE"/>
<path d="M54.815 51.058C55.3392 51.4674 55.6016 52.0663 55.6016 52.8546C55.6016 53.3851 55.4769 53.8366 55.2286 54.2078C54.9797 54.5789 54.6463 54.8554 54.2293 55.0377C53.8118 55.2194 53.3465 55.3103 52.8338 55.3103H50.7203V58.0961C50.7203 58.1798 50.6899 58.2515 50.6285 58.3118C50.5672 58.3726 50.4947 58.4027 50.4101 58.4027H49.939C49.8549 58.4027 49.782 58.3726 49.7206 58.3118C49.6592 58.2515 49.6288 58.1798 49.6288 58.0961V50.7509C49.6288 50.6677 49.6592 50.5959 49.7206 50.5352C49.782 50.4744 49.8544 50.4443 49.939 50.4443H52.8334C53.6297 50.4443 54.2902 50.649 54.815 51.058ZM52.7759 54.2872C53.3349 54.2872 53.7635 54.1681 54.0621 53.9294C54.3607 53.6902 54.5101 53.3324 54.5101 52.8546C54.5101 51.93 53.9317 51.4679 52.7759 51.4679H50.7198V54.2877H52.7759V54.2872Z" fill="#F1FAEE"/>
<path d="M61.1497 53.1502C61.6242 53.6658 61.8619 54.367 61.8619 55.2534V55.5609C61.8619 55.6442 61.8315 55.7159 61.7701 55.7767C61.7088 55.8374 61.6358 55.8676 61.5517 55.8676H57.6006V55.936C57.6156 56.4363 57.7707 56.8285 58.0654 57.1126C58.3602 57.3972 58.741 57.5393 59.2082 57.5393C59.5909 57.5393 59.8876 57.49 60.0983 57.3915C60.3089 57.293 60.4983 57.1523 60.667 56.9706C60.7279 56.9098 60.7834 56.8682 60.8337 56.8453C60.8835 56.8228 60.9501 56.8113 61.0347 56.8113H61.3792C61.471 56.8113 61.5479 56.8414 61.6092 56.9022C61.6701 56.9629 61.6972 57.0347 61.6899 57.1179C61.6595 57.3231 61.5464 57.5331 61.3512 57.7488C61.156 57.965 60.8762 58.1468 60.5128 58.2951C60.149 58.4429 59.7146 58.5165 59.2092 58.5165C58.7192 58.5165 58.2829 58.4051 57.8997 58.1812C57.517 57.9578 57.2126 57.6489 56.9865 57.2547C56.7603 56.8606 56.6245 56.4172 56.5786 55.9245C56.5632 55.6968 56.5555 55.5227 56.5555 55.4012C56.5555 55.2797 56.5632 55.1056 56.5786 54.8779C56.6245 54.4082 56.7603 53.9839 56.9865 53.6046C57.2121 53.2258 57.5146 52.9263 57.8939 52.7063C58.2732 52.4863 58.711 52.3767 59.2092 52.3767C60.0277 52.3772 60.6747 52.635 61.1497 53.1502ZM60.8279 54.9128V54.8789C60.8279 54.4168 60.68 54.047 60.3853 53.7706C60.0905 53.4941 59.6982 53.3554 59.2077 53.3554C58.7637 53.3554 58.3863 53.496 58.0766 53.7763C57.7663 54.0571 57.6074 54.424 57.6001 54.8793V54.9133H60.8279V54.9128Z" fill="#F1FAEE"/>
<path d="M65.0143 57.1643C65.1481 57.3384 65.4028 57.426 65.7782 57.426H66.3871C66.4711 57.426 66.5436 57.4561 66.6055 57.5164C66.6663 57.5771 66.6973 57.6488 66.6973 57.7326V58.0966C66.6973 58.1803 66.6668 58.252 66.6055 58.3123C66.5441 58.373 66.4711 58.4032 66.3871 58.4032H65.6632C65.0124 58.4032 64.5335 58.2343 64.2272 57.8971C63.9208 57.5599 63.7676 57.0653 63.7676 56.4128V53.4683H62.9177C62.8336 53.4683 62.7607 53.4381 62.6993 53.3774C62.6379 53.3166 62.6075 53.2449 62.6075 53.1617V52.7977C62.6075 52.7139 62.6379 52.6422 62.6993 52.5815C62.7607 52.5207 62.8331 52.4906 62.9177 52.4906H63.7676V50.6375C63.7676 50.5538 63.7981 50.4821 63.8595 50.4213C63.9208 50.3611 63.9933 50.3309 64.0779 50.3309H64.5031C64.5871 50.3309 64.6596 50.3611 64.7215 50.4213C64.7824 50.4821 64.8133 50.5538 64.8133 50.6375V52.4906H66.2721C66.3561 52.4906 66.4291 52.5207 66.4905 52.5815C66.5513 52.6422 66.5823 52.7139 66.5823 52.7977V53.1617C66.5823 53.2449 66.5518 53.3166 66.4905 53.3774C66.4291 53.4381 66.3566 53.4683 66.2721 53.4683H64.8133V56.4128C64.8133 56.7395 64.8804 56.9902 65.0143 57.1643Z" fill="#F1FAEE"/>
<path d="M75.8626 58.3123C75.8012 58.373 75.7287 58.4032 75.6442 58.4032H75.2195C75.1354 58.4032 75.0624 58.373 75.0011 58.3123C74.9397 58.252 74.9092 58.1803 74.9092 58.0966V55.0951C74.9092 54.5268 74.7677 54.0944 74.484 53.7988C74.2004 53.5032 73.8066 53.3549 73.3012 53.3549C72.8035 53.3549 72.4111 53.5032 72.1236 53.7988C71.8361 54.0944 71.6926 54.5263 71.6926 55.0951V58.0966C71.6926 58.1803 71.6621 58.252 71.6008 58.3123C71.5394 58.373 71.4669 58.4032 71.3824 58.4032H70.9577C70.8731 58.4032 70.8006 58.373 70.7392 58.3123C70.6779 58.252 70.6474 58.1803 70.6474 58.0966V50.6375C70.6474 50.5538 70.6779 50.4821 70.7392 50.4213C70.8001 50.3611 70.8731 50.3309 70.9577 50.3309H71.3824C71.4665 50.3309 71.5394 50.3611 71.6008 50.4213C71.6617 50.4821 71.6926 50.5538 71.6926 50.6375V53.1502C71.8612 52.9306 72.0927 52.7465 72.3874 52.5992C72.6822 52.4509 73.0436 52.3772 73.4727 52.3772C73.9554 52.3772 74.384 52.4796 74.7595 52.6843C75.1344 52.889 75.4272 53.1827 75.6379 53.5659C75.8486 53.9485 75.9539 54.4015 75.9539 54.9248V58.097C75.9549 58.1803 75.924 58.252 75.8626 58.3123Z" fill="#F1FAEE"/>
<path d="M81.9161 53.1502C82.3906 53.6658 82.6283 54.367 82.6283 55.2534V55.5609C82.6283 55.6442 82.5979 55.7159 82.5365 55.7767C82.4752 55.8374 82.4022 55.8676 82.3181 55.8676H78.367V55.936C78.382 56.4363 78.5371 56.8285 78.8318 57.1126C79.1266 57.3972 79.5073 57.5393 79.9746 57.5393C80.3573 57.5393 80.654 57.49 80.8646 57.3915C81.0753 57.293 81.2647 57.1523 81.4334 56.9706C81.4943 56.9098 81.5498 56.8682 81.6001 56.8453C81.6498 56.8228 81.7165 56.8113 81.8011 56.8113H82.1456C82.2374 56.8113 82.3142 56.8414 82.3756 56.9022C82.4365 56.9629 82.4636 57.0347 82.4563 57.1179C82.4259 57.3231 82.3128 57.5331 82.1176 57.7488C81.9224 57.965 81.6426 58.1468 81.2792 58.2951C80.9154 58.4429 80.481 58.5165 79.9756 58.5165C79.4856 58.5165 79.0493 58.4051 78.6661 58.1812C78.2834 57.9578 77.979 57.6489 77.7529 57.2547C77.5267 56.8606 77.3909 56.4172 77.345 55.9245C77.3296 55.6968 77.3218 55.5227 77.3218 55.4012C77.3218 55.2797 77.3296 55.1056 77.345 54.8779C77.3909 54.4082 77.5267 53.9839 77.7529 53.6046C77.9785 53.2258 78.281 52.9263 78.6603 52.7063C79.0396 52.4863 79.4774 52.3767 79.9756 52.3767C80.7941 52.3772 81.4411 52.635 81.9161 53.1502ZM81.5943 54.9128V54.8789C81.5943 54.4168 81.4464 54.047 81.1517 53.7706C80.8569 53.4941 80.4646 53.3554 79.9741 53.3554C79.5301 53.3554 79.1527 53.496 78.843 53.7763C78.5327 54.0571 78.3738 54.424 78.3665 54.8793V54.9133H81.5943V54.9128Z" fill="#F1FAEE"/>
<path d="M87.5666 54.6626V54.5144C87.5666 54.1432 87.4419 53.8571 87.1936 53.6558C86.9447 53.4553 86.621 53.3544 86.2228 53.3544C85.9165 53.3544 85.6773 53.4056 85.5053 53.508C85.3328 53.6103 85.1699 53.7639 85.0172 53.9686C84.9713 54.0293 84.9211 54.071 84.8679 54.0939C84.8143 54.1164 84.7413 54.1279 84.6495 54.1279H84.3045C84.2205 54.1279 84.1456 54.0977 84.0808 54.037C84.0156 53.9762 83.9871 53.9045 83.9948 53.8208C84.0175 53.5936 84.1306 53.3683 84.3335 53.1444C84.5365 52.9211 84.8066 52.7369 85.1434 52.5934C85.4801 52.4489 85.8401 52.3772 86.2228 52.3772C86.9351 52.3772 87.511 52.5743 87.9517 52.9684C88.3919 53.3626 88.6122 53.9155 88.6122 54.6287V58.0965C88.6122 58.1803 88.5818 58.252 88.5204 58.3123C88.4591 58.373 88.3866 58.4032 88.302 58.4032H87.8773C87.7927 58.4032 87.7203 58.373 87.6589 58.3123C87.5975 58.252 87.5671 58.1803 87.5671 58.0965V57.6302C87.4448 57.9028 87.1844 58.1185 86.7862 58.2778C86.3881 58.4371 85.9899 58.5165 85.5918 58.5165C85.2013 58.5165 84.8525 58.4467 84.5466 58.3065C84.2403 58.1664 84.0045 57.9751 83.8402 57.7325C83.6754 57.49 83.5933 57.2174 83.5933 56.9136C83.5933 56.3454 83.8073 55.9001 84.2364 55.5777C84.665 55.2558 85.2357 55.0377 85.9479 54.9243L87.5666 54.6626ZM87.5666 55.5724L86.2112 55.7881C85.7135 55.8642 85.3265 55.9871 85.0511 56.1579C84.7752 56.3282 84.6375 56.5425 84.6375 56.8003C84.6375 56.9897 84.7254 57.1605 84.9018 57.3116C85.0776 57.4632 85.3458 57.5393 85.7058 57.5393C86.2571 57.5393 86.7051 57.3843 87.0496 57.0729C87.3941 56.7625 87.5661 56.3569 87.5661 55.8566V55.5724H87.5666Z" fill="#F1FAEE"/>
<path d="M91.2423 58.3123C91.1809 58.373 91.1084 58.4032 91.0239 58.4032H90.5992C90.5146 58.4032 90.4421 58.373 90.3807 58.3123C90.3194 58.252 90.2889 58.1803 90.2889 58.0966V50.6375C90.2889 50.5538 90.3194 50.4821 90.3807 50.4213C90.4416 50.3611 90.5146 50.3309 90.5992 50.3309H91.0239C91.108 50.3309 91.1809 50.3611 91.2423 50.4213C91.3032 50.4821 91.3341 50.5538 91.3341 50.6375V58.0966C91.3341 58.1803 91.3037 58.252 91.2423 58.3123Z" fill="#F1FAEE"/>
<path d="M94.8204 57.1643C94.9542 57.3384 95.2088 57.426 95.5843 57.426H96.1931C96.2772 57.426 96.3497 57.4561 96.4115 57.5164C96.4724 57.5771 96.5033 57.6488 96.5033 57.7326V58.0966C96.5033 58.1803 96.4729 58.252 96.4115 58.3123C96.3502 58.373 96.2772 58.4032 96.1931 58.4032H95.4693C94.8184 58.4032 94.3396 58.2343 94.0332 57.8971C93.7269 57.5599 93.5737 57.0653 93.5737 56.4128V53.4683H92.7238C92.6397 53.4683 92.5667 53.4381 92.5054 53.3774C92.444 53.3166 92.4135 53.2449 92.4135 53.1617V52.7977C92.4135 52.7139 92.444 52.6422 92.5054 52.5815C92.5667 52.5207 92.6392 52.4906 92.7238 52.4906H93.5737V50.6375C93.5737 50.5538 93.6041 50.4821 93.6655 50.4213C93.7269 50.3611 93.7994 50.3309 93.8839 50.3309H94.3091C94.3932 50.3309 94.4657 50.3611 94.5275 50.4213C94.5884 50.4821 94.6193 50.5538 94.6193 50.6375V52.4906H96.0781C96.1622 52.4906 96.2352 52.5207 96.2965 52.5815C96.3574 52.6422 96.3883 52.7139 96.3883 52.7977V53.1617C96.3883 53.2449 96.3579 53.3166 96.2965 53.3774C96.2352 53.4381 96.1627 53.4683 96.0781 53.4683H94.6193V56.4128C94.6193 56.7395 94.686 56.9902 94.8204 57.1643Z" fill="#F1FAEE"/>
<path d="M102.866 58.3123C102.805 58.373 102.732 58.4032 102.648 58.4032H102.223C102.139 58.4032 102.066 58.373 102.005 58.3123C101.943 58.252 101.913 58.1803 101.913 58.0966V55.0951C101.913 54.5268 101.771 54.0944 101.488 53.7988C101.204 53.5032 100.81 53.3549 100.305 53.3549C99.807 53.3549 99.4146 53.5032 99.1271 53.7988C98.8396 54.0944 98.6961 54.5263 98.6961 55.0951V58.0966C98.6961 58.1803 98.6657 58.252 98.6043 58.3123C98.5429 58.373 98.4704 58.4032 98.3859 58.4032H97.9612C97.8766 58.4032 97.8041 58.373 97.7427 58.3123C97.6814 58.252 97.6509 58.1803 97.6509 58.0966V50.6375C97.6509 50.5538 97.6814 50.4821 97.7427 50.4213C97.8036 50.3611 97.8766 50.3309 97.9612 50.3309H98.3859C98.47 50.3309 98.5429 50.3611 98.6043 50.4213C98.6652 50.4821 98.6961 50.5538 98.6961 50.6375V53.1502C98.8647 52.9306 99.0962 52.7465 99.3909 52.5992C99.6857 52.4509 100.047 52.3772 100.476 52.3772C100.959 52.3772 101.388 52.4796 101.763 52.6843C102.138 52.889 102.431 53.1827 102.641 53.5659C102.852 53.9485 102.957 54.4015 102.957 54.9248V58.097C102.958 58.1803 102.927 58.252 102.866 58.3123Z" fill="#F1FAEE"/>
<path d="M109.092 52.5872C109.321 52.447 109.627 52.3772 110.01 52.3772C110.906 52.3772 111.534 52.7068 111.893 53.3664C112.116 53.0478 112.368 52.8034 112.652 52.6331C112.935 52.4628 113.306 52.3772 113.766 52.3772C114.516 52.3772 115.074 52.6011 115.437 53.0478C115.8 53.4955 115.983 54.1284 115.983 54.9468V58.0965C115.983 58.1803 115.952 58.252 115.891 58.3123C115.83 58.373 115.757 58.4032 115.673 58.4032H115.248C115.163 58.4032 115.091 58.373 115.03 58.3123C114.968 58.252 114.938 58.1803 114.938 58.0965V55.0606C114.938 53.9232 114.486 53.3549 113.583 53.3549C113.169 53.3549 112.839 53.4912 112.595 53.7643C112.349 54.037 112.227 54.4426 112.227 54.9807V58.0965C112.227 58.1803 112.196 58.252 112.135 58.3123C112.074 58.373 112.001 58.4032 111.917 58.4032H111.492C111.408 58.4032 111.335 58.373 111.274 58.3123C111.212 58.252 111.182 58.1803 111.182 58.0965V55.0606C111.182 53.9232 110.73 53.3549 109.827 53.3549C109.414 53.3549 109.084 53.4912 108.839 53.7643C108.593 54.037 108.472 54.4426 108.472 54.9807V58.0965C108.472 58.1803 108.441 58.252 108.379 58.3123C108.318 58.373 108.246 58.4032 108.161 58.4032H107.737C107.652 58.4032 107.579 58.373 107.518 58.3123C107.457 58.252 107.427 58.1803 107.427 58.0965V52.7981C107.427 52.7144 107.457 52.6427 107.518 52.5819C107.579 52.5212 107.652 52.491 107.737 52.491H108.161C108.246 52.491 108.318 52.5212 108.379 52.5819C108.441 52.6427 108.472 52.7144 108.472 52.7981V53.1502C108.655 52.9153 108.861 52.7278 109.092 52.5872Z" fill="#F1FAEE"/>
<path d="M122.84 55.4586C122.84 55.6403 122.832 55.8149 122.817 55.9814C122.748 56.7544 122.478 57.3705 122.007 57.8292C121.536 58.2879 120.899 58.517 120.095 58.517C119.291 58.517 118.653 58.2879 118.182 57.8292C117.711 57.3705 117.441 56.7544 117.372 55.9814C117.364 55.8982 117.361 55.7241 117.361 55.4586C117.361 55.1778 117.365 54.996 117.372 54.9123C117.434 54.1394 117.702 53.5238 118.176 53.065C118.651 52.6063 119.291 52.3772 120.095 52.3772C120.899 52.3772 121.538 52.6063 122.013 53.065C122.488 53.5238 122.756 54.1394 122.817 54.9123C122.832 55.0793 122.84 55.2615 122.84 55.4586ZM121.284 53.7988C121.004 53.5032 120.608 53.3549 120.095 53.3549C119.581 53.3549 119.185 53.5032 118.906 53.7988C118.626 54.0944 118.464 54.4852 118.417 54.9697C118.41 55.0606 118.406 55.2237 118.406 55.4586C118.406 55.6858 118.41 55.8412 118.417 55.925C118.464 56.41 118.626 56.8003 118.906 57.0959C119.185 57.3915 119.581 57.5393 120.095 57.5393C120.608 57.5393 121.004 57.3915 121.284 57.0959C121.563 56.8003 121.726 56.4095 121.772 55.925C121.787 55.758 121.795 55.6026 121.795 55.4586C121.795 55.3141 121.787 55.151 121.772 54.9697C121.726 54.4847 121.563 54.0944 121.284 53.7988Z" fill="#F1FAEE"/>
<path d="M129.491 58.3123C129.429 58.373 129.357 58.4032 129.272 58.4032H128.848C128.763 58.4032 128.691 58.373 128.629 58.3123C128.568 58.252 128.537 58.1803 128.537 58.0965V55.0951C128.537 54.5268 128.396 54.0944 128.113 53.7988C127.829 53.5032 127.435 53.3549 126.929 53.3549C126.432 53.3549 126.039 53.5032 125.752 53.7988C125.465 54.0944 125.321 54.5263 125.321 55.0951V58.0965C125.321 58.1803 125.291 58.252 125.229 58.3123C125.168 58.373 125.096 58.4032 125.011 58.4032H124.586C124.502 58.4032 124.429 58.373 124.368 58.3123C124.307 58.252 124.277 58.1803 124.277 58.0965V52.7981C124.277 52.7144 124.307 52.6427 124.368 52.5819C124.429 52.5212 124.502 52.491 124.586 52.491H125.011C125.096 52.491 125.168 52.5212 125.229 52.5819C125.291 52.6427 125.321 52.7144 125.321 52.7981V53.1502C125.489 52.9306 125.721 52.7465 126.016 52.5992C126.311 52.4509 126.673 52.3772 127.102 52.3772C127.584 52.3772 128.013 52.4796 128.388 52.6843C128.763 52.889 129.056 53.1827 129.267 53.5658C129.477 53.9485 129.582 54.4015 129.582 54.9248V58.097C129.582 58.1803 129.552 58.252 129.491 58.3123Z" fill="#F1FAEE"/>
<path d="M132.316 51.5019C132.255 51.5626 132.182 51.5923 132.098 51.5923H131.443C131.359 51.5923 131.287 51.5622 131.225 51.5019C131.164 51.4416 131.134 51.3694 131.134 51.2857V50.638C131.134 50.5543 131.164 50.4826 131.225 50.4218C131.287 50.3616 131.359 50.3314 131.443 50.3314H132.098C132.182 50.3314 132.255 50.3616 132.316 50.4218C132.377 50.4826 132.408 50.5543 132.408 50.638V51.2857C132.408 51.3694 132.377 51.4411 132.316 51.5019ZM132.202 58.3123C132.14 58.373 132.068 58.4032 131.983 58.4032H131.558C131.474 58.4032 131.401 58.373 131.34 58.3123C131.279 58.252 131.249 58.1803 131.249 58.0966V52.7981C131.249 52.7144 131.279 52.6427 131.34 52.5819C131.401 52.5212 131.474 52.4911 131.558 52.4911H131.983C132.068 52.4911 132.14 52.5212 132.202 52.5819C132.263 52.6427 132.293 52.7144 132.293 52.7981V58.0966C132.293 58.1803 132.263 58.252 132.202 58.3123Z" fill="#F1FAEE"/>
<path d="M135.779 57.1643C135.913 57.3384 136.168 57.426 136.543 57.426H137.152C137.236 57.426 137.308 57.4561 137.37 57.5164C137.431 57.5771 137.462 57.6488 137.462 57.7326V58.0966C137.462 58.1803 137.431 58.252 137.37 58.3123C137.308 58.373 137.236 58.4032 137.152 58.4032H136.428C135.777 58.4032 135.298 58.2343 134.993 57.8971C134.686 57.5599 134.533 57.0653 134.533 56.4128V53.4683H133.683C133.598 53.4683 133.526 53.4381 133.465 53.3774C133.403 53.3166 133.373 53.2449 133.373 53.1617V52.7977C133.373 52.7139 133.403 52.6422 133.465 52.5815C133.526 52.5207 133.598 52.4906 133.683 52.4906H134.533V50.6375C134.533 50.5538 134.563 50.4821 134.625 50.4213C134.686 50.3611 134.758 50.3309 134.843 50.3309H135.268C135.352 50.3309 135.424 50.3611 135.486 50.4213C135.547 50.4821 135.578 50.5538 135.578 50.6375V52.4906H137.036C137.121 52.4906 137.193 52.5207 137.255 52.5815C137.316 52.6422 137.347 52.7139 137.347 52.7977V53.1617C137.347 53.2449 137.316 53.3166 137.255 53.3774C137.193 53.4381 137.121 53.4683 137.036 53.4683H135.578V56.4128C135.578 56.7395 135.645 56.9902 135.779 57.1643Z" fill="#F1FAEE"/>
<path d="M143.802 55.4586C143.802 55.6403 143.794 55.8149 143.779 55.9814C143.71 56.7544 143.44 57.3705 142.969 57.8292C142.498 58.2879 141.861 58.517 141.057 58.517C140.253 58.517 139.615 58.2879 139.144 57.8292C138.673 57.3705 138.403 56.7544 138.334 55.9814C138.327 55.8982 138.323 55.7241 138.323 55.4586C138.323 55.1778 138.327 54.996 138.334 54.9123C138.396 54.1394 138.664 53.5238 139.138 53.065C139.613 52.6063 140.253 52.3772 141.057 52.3772C141.861 52.3772 142.5 52.6063 142.975 53.065C143.45 53.5238 143.718 54.1394 143.779 54.9123C143.794 55.0793 143.802 55.2615 143.802 55.4586ZM142.246 53.7988C141.966 53.5032 141.57 53.3549 141.057 53.3549C140.543 53.3549 140.147 53.5032 139.868 53.7988C139.588 54.0944 139.426 54.4852 139.379 54.9697C139.372 55.0606 139.368 55.2237 139.368 55.4586C139.368 55.6858 139.372 55.8412 139.379 55.925C139.426 56.41 139.588 56.8003 139.868 57.0959C140.147 57.3915 140.543 57.5393 141.057 57.5393C141.57 57.5393 141.966 57.3915 142.246 57.0959C142.525 56.8003 142.688 56.4095 142.734 55.925C142.749 55.758 142.757 55.6026 142.757 55.4586C142.757 55.3141 142.749 55.151 142.734 54.9697C142.688 54.4847 142.525 54.0944 142.246 53.7988Z" fill="#F1FAEE"/>
<path d="M148.488 52.5819C148.55 52.6427 148.58 52.7144 148.58 52.7981V53.1622C148.58 53.2454 148.55 53.3171 148.488 53.3779C148.427 53.4386 148.354 53.4688 148.27 53.4688H147.604C147.175 53.4688 146.848 53.5802 146.622 53.8041C146.396 54.0279 146.283 54.3517 146.283 54.776V58.0961C146.283 58.1798 146.253 58.2515 146.192 58.3118C146.13 58.3726 146.058 58.4027 145.973 58.4027H145.548C145.464 58.4027 145.391 58.3726 145.33 58.3118C145.269 58.2515 145.239 58.1798 145.239 58.0961V52.7981C145.239 52.7144 145.269 52.6427 145.33 52.5819C145.391 52.5212 145.464 52.4911 145.548 52.4911H145.973C146.058 52.4911 146.13 52.5212 146.192 52.5819C146.253 52.6427 146.283 52.7144 146.283 52.7981V53.1502C146.436 52.9225 146.62 52.7565 146.835 52.6499C147.049 52.5437 147.329 52.4906 147.673 52.4906H148.27C148.354 52.4906 148.427 52.5212 148.488 52.5819Z" fill="#F1FAEE"/>
<path d="M150.648 51.5019C150.586 51.5626 150.514 51.5923 150.43 51.5923H149.775C149.691 51.5923 149.618 51.5622 149.557 51.5019C149.496 51.4416 149.465 51.3694 149.465 51.2857V50.638C149.465 50.5543 149.496 50.4826 149.557 50.4218C149.618 50.3616 149.691 50.3314 149.775 50.3314H150.43C150.514 50.3314 150.586 50.3616 150.648 50.4218C150.709 50.4826 150.739 50.5543 150.739 50.638V51.2857C150.739 51.3694 150.709 51.4411 150.648 51.5019ZM150.533 58.3123C150.472 58.373 150.399 58.4032 150.315 58.4032H149.89C149.805 58.4032 149.733 58.373 149.672 58.3123C149.61 58.252 149.58 58.1803 149.58 58.0966V52.7981C149.58 52.7144 149.611 52.6427 149.672 52.5819C149.732 52.5212 149.805 52.4911 149.89 52.4911H150.315C150.399 52.4911 150.472 52.5212 150.533 52.5819C150.594 52.6427 150.625 52.7144 150.625 52.7981V58.0966C150.625 58.1803 150.594 58.252 150.533 58.3123Z" fill="#F1FAEE"/>
<path d="M157.562 58.3123C157.501 58.373 157.428 58.4032 157.344 58.4032H156.919C156.835 58.4032 156.762 58.373 156.701 58.3123C156.639 58.252 156.609 58.1803 156.609 58.0965V55.0951C156.609 54.5268 156.467 54.0944 156.184 53.7988C155.9 53.5032 155.507 53.3549 155.001 53.3549C154.503 53.3549 154.111 53.5032 153.823 53.7988C153.536 54.0944 153.393 54.5263 153.393 55.0951V58.0965C153.393 58.1803 153.362 58.252 153.301 58.3123C153.24 58.373 153.167 58.4032 153.082 58.4032H152.658C152.573 58.4032 152.501 58.373 152.439 58.3123C152.378 58.252 152.348 58.1803 152.348 58.0965V52.7981C152.348 52.7144 152.378 52.6427 152.439 52.5819C152.5 52.5212 152.573 52.491 152.658 52.491H153.082C153.167 52.491 153.24 52.5212 153.301 52.5819C153.362 52.6427 153.393 52.7144 153.393 52.7981V53.1502C153.561 52.9306 153.792 52.7465 154.088 52.5992C154.382 52.4509 154.744 52.3772 155.173 52.3772C155.656 52.3772 156.085 52.4796 156.46 52.6843C156.835 52.889 157.127 53.1827 157.338 53.5658C157.549 53.9485 157.654 54.4015 157.654 54.9248V58.097C157.654 58.1803 157.623 58.252 157.562 58.3123Z" fill="#F1FAEE"/>
<path d="M162.725 52.5992C163.019 52.747 163.251 52.9306 163.42 53.1502V52.7981C163.42 52.7144 163.45 52.6427 163.511 52.5819C163.572 52.5212 163.645 52.4911 163.73 52.4911H164.154C164.239 52.4911 164.312 52.5212 164.373 52.5819C164.434 52.6427 164.465 52.7144 164.465 52.7981V58.3242C164.465 59.1274 164.235 59.7583 163.775 60.217C163.316 60.6757 162.642 60.9048 161.753 60.9048C161.179 60.9048 160.697 60.8173 160.306 60.6432C159.916 60.4691 159.627 60.2529 159.439 59.9955C159.251 59.7377 159.15 59.4761 159.135 59.2106C159.127 59.1269 159.156 59.0551 159.221 58.9949C159.286 58.9341 159.361 58.904 159.445 58.904H159.79C159.881 58.904 159.954 58.9269 160.008 58.9724C160.061 59.0178 160.115 59.0977 160.169 59.2111C160.245 59.3852 160.39 59.5483 160.605 59.6999C160.819 59.8511 161.163 59.9276 161.639 59.9276C162.826 59.9276 163.42 59.4387 163.42 58.461V57.7445C163.029 58.2601 162.435 58.5175 161.639 58.5175C161.164 58.5175 160.733 58.408 160.346 58.1884C159.96 57.9684 159.65 57.656 159.416 57.2499C159.182 56.8443 159.054 56.3688 159.031 55.8231L159.02 55.4481L159.031 55.0731C159.054 54.5273 159.182 54.0514 159.416 53.6462C159.649 53.2406 159.957 52.9282 160.341 52.7082C160.723 52.4882 161.156 52.3787 161.639 52.3787C162.069 52.3772 162.43 52.4509 162.725 52.5992ZM160.566 53.8328C160.271 54.1508 160.108 54.5828 160.077 55.129L160.066 55.4471L160.077 55.7657C160.108 56.3114 160.271 56.7434 160.566 57.0619C160.86 57.38 161.257 57.5393 161.754 57.5393C162.244 57.5393 162.639 57.3896 162.937 57.0906C163.236 56.7917 163.397 56.3798 163.42 55.857C163.427 55.781 163.431 55.6447 163.431 55.4476C163.431 55.2505 163.427 55.1142 163.42 55.0386C163.397 54.5081 163.236 54.0949 162.937 53.7993C162.639 53.5037 162.244 53.3554 161.754 53.3554C161.257 53.3549 160.861 53.5142 160.566 53.8328Z" fill="#F1FAEE"/>
<path d="M170.656 52.5872C170.886 52.447 171.192 52.3772 171.574 52.3772C172.47 52.3772 173.098 52.7068 173.458 53.3664C173.68 53.0478 173.932 52.8034 174.216 52.6331C174.499 52.4628 174.87 52.3772 175.33 52.3772C176.081 52.3772 176.638 52.6011 177.002 53.0478C177.365 53.4955 177.547 54.1284 177.547 54.9468V58.0965C177.547 58.1803 177.517 58.252 177.455 58.3123C177.394 58.373 177.322 58.4032 177.238 58.4032H176.812C176.728 58.4032 176.655 58.373 176.594 58.3123C176.533 58.252 176.503 58.1803 176.503 58.0965V55.0606C176.503 53.9232 176.05 53.3549 175.147 53.3549C174.734 53.3549 174.404 53.4912 174.159 53.7643C173.914 54.037 173.791 54.4426 173.791 54.9807V58.0965C173.791 58.1803 173.761 58.252 173.7 58.3123C173.639 58.373 173.566 58.4032 173.482 58.4032H173.056C172.972 58.4032 172.9 58.373 172.838 58.3123C172.777 58.252 172.747 58.1803 172.747 58.0965V55.0606C172.747 53.9232 172.295 53.3549 171.391 53.3549C170.978 53.3549 170.649 53.4912 170.404 53.7643C170.158 54.037 170.036 54.4426 170.036 54.9807V58.0965C170.036 58.1803 170.005 58.252 169.944 58.3123C169.883 58.373 169.81 58.4032 169.726 58.4032H169.301C169.216 58.4032 169.144 58.373 169.083 58.3123C169.021 58.252 168.991 58.1803 168.991 58.0965V52.7981C168.991 52.7144 169.022 52.6427 169.083 52.5819C169.143 52.5212 169.216 52.491 169.301 52.491H169.726C169.81 52.491 169.883 52.5212 169.944 52.5819C170.005 52.6427 170.036 52.7144 170.036 52.7981V53.1502C170.22 52.9153 170.426 52.7278 170.656 52.5872Z" fill="#F1FAEE"/>
<path d="M182.762 54.6626V54.5144C182.762 54.1432 182.638 53.8571 182.389 53.6558C182.141 53.4553 181.817 53.3544 181.419 53.3544C181.112 53.3544 180.873 53.4056 180.701 53.508C180.529 53.6103 180.366 53.7639 180.213 53.9686C180.167 54.0293 180.117 54.071 180.063 54.0939C180.01 54.1164 179.937 54.1279 179.845 54.1279H179.5C179.416 54.1279 179.341 54.0977 179.276 54.037C179.211 53.9762 179.183 53.9045 179.19 53.8208C179.213 53.5936 179.326 53.3683 179.529 53.1444C179.732 52.9211 180.002 52.7369 180.339 52.5934C180.676 52.4489 181.035 52.3772 181.418 52.3772C182.13 52.3772 182.706 52.5743 183.147 52.9684C183.587 53.3626 183.807 53.9155 183.807 54.6287V58.0965C183.807 58.1803 183.777 58.252 183.715 58.3123C183.654 58.373 183.581 58.4032 183.497 58.4032H183.072C182.988 58.4032 182.916 58.373 182.854 58.3123C182.793 58.252 182.762 58.1803 182.762 58.0965V57.6302C182.64 57.9028 182.379 58.1185 181.982 58.2778C181.583 58.4371 181.185 58.5165 180.787 58.5165C180.396 58.5165 180.048 58.4467 179.741 58.3065C179.435 58.1664 179.2 57.9751 179.035 57.7325C178.87 57.49 178.788 57.2174 178.788 56.9136C178.788 56.3454 179.002 55.9001 179.431 55.5777C179.86 55.2558 180.431 55.0377 181.143 54.9243L182.762 54.6626ZM182.762 55.5724L181.407 55.7881C180.909 55.8642 180.523 55.9871 180.247 56.1579C179.972 56.3282 179.834 56.5425 179.834 56.8003C179.834 56.9897 179.922 57.1605 180.098 57.3116C180.274 57.4632 180.542 57.5393 180.902 57.5393C181.453 57.5393 181.901 57.3843 182.246 57.0729C182.59 56.7625 182.762 56.3569 182.762 55.8566V55.5724Z" fill="#F1FAEE"/>
<path d="M189.585 50.6375C189.585 50.5538 189.616 50.4821 189.677 50.4213C189.738 50.3611 189.81 50.3309 189.895 50.3309H190.32C190.404 50.3309 190.477 50.3611 190.538 50.4213C190.599 50.4821 190.63 50.5538 190.63 50.6375V58.0966C190.63 58.1803 190.599 58.252 190.538 58.3123C190.477 58.373 190.404 58.4032 190.32 58.4032H189.895C189.81 58.4032 189.738 58.373 189.677 58.3123C189.615 58.252 189.585 58.1803 189.585 58.0966V57.744C189.194 58.2597 188.601 58.517 187.805 58.517C187.33 58.517 186.899 58.4075 186.512 58.1879C186.125 57.9679 185.815 57.6531 185.582 57.2437C185.348 56.8347 185.22 56.3569 185.197 55.8111L185.186 55.4361L185.197 55.0721C185.22 54.5263 185.348 54.0504 185.582 53.6452C185.815 53.2396 186.123 52.9273 186.506 52.7073C186.889 52.4872 187.322 52.3777 187.805 52.3777C188.233 52.3777 188.595 52.4513 188.89 52.5996C189.184 52.7474 189.416 52.9311 189.585 53.1507V50.6375H189.585ZM189.102 53.7988C188.804 53.5032 188.409 53.3549 187.92 53.3549C187.422 53.3549 187.025 53.5142 186.731 53.8328C186.436 54.1508 186.273 54.5828 186.242 55.129L186.231 55.4471L186.242 55.7657C186.273 56.3114 186.436 56.7434 186.731 57.0619C187.025 57.38 187.422 57.5393 187.92 57.5393C188.394 57.5393 188.785 57.3934 189.091 57.1016C189.398 56.8099 189.562 56.4215 189.585 55.936C189.592 55.8604 189.596 55.7083 189.596 55.4811C189.596 55.2615 189.592 55.1132 189.585 55.0377C189.562 54.5072 189.401 54.0944 189.102 53.7988Z" fill="#F1FAEE"/>
<path d="M196.649 53.1502C197.123 53.6658 197.361 54.367 197.361 55.2534V55.5609C197.361 55.6442 197.33 55.7159 197.269 55.7767C197.208 55.8374 197.136 55.8676 197.051 55.8676H193.1V55.936C193.115 56.4363 193.271 56.8285 193.565 57.1126C193.86 57.3972 194.241 57.5393 194.708 57.5393C195.091 57.5393 195.387 57.49 195.598 57.3915C195.809 57.293 195.998 57.1523 196.167 56.9706C196.228 56.9098 196.283 56.8682 196.334 56.8453C196.383 56.8228 196.45 56.8113 196.535 56.8113H196.879C196.971 56.8113 197.048 56.8414 197.109 56.9022C197.17 56.9629 197.197 57.0347 197.189 57.1179C197.159 57.3231 197.046 57.5331 196.851 57.7488C196.655 57.965 196.376 58.1468 196.012 58.2951C195.648 58.4429 195.214 58.5165 194.709 58.5165C194.219 58.5165 193.782 58.4051 193.4 58.1812C193.016 57.9578 192.712 57.6489 192.486 57.2547C192.26 56.8606 192.124 56.4172 192.078 55.9245C192.063 55.6968 192.055 55.5227 192.055 55.4012C192.055 55.2797 192.063 55.1056 192.078 54.8779C192.124 54.4082 192.26 53.9839 192.486 53.6046C192.712 53.2258 193.014 52.9263 193.394 52.7063C193.773 52.4863 194.211 52.3767 194.709 52.3767C195.527 52.3772 196.174 52.635 196.649 53.1502ZM196.327 54.9128V54.8789C196.327 54.4168 196.179 54.047 195.885 53.7706C195.59 53.4941 195.198 53.3554 194.708 53.3554C194.263 53.3554 193.886 53.496 193.576 53.7763C193.266 54.0571 193.107 54.424 193.099 54.8793V54.9133H196.327V54.9128Z" fill="#F1FAEE"/>
<path d="M201.311 54.0824C201.311 53.772 201.396 53.4874 201.564 53.2301C201.733 52.9722 201.983 52.7656 202.316 52.6101C202.649 52.4552 203.057 52.3772 203.54 52.3772C204.014 52.3772 204.424 52.4456 204.769 52.5819C205.113 52.7182 205.376 52.889 205.556 53.0937C205.736 53.2985 205.826 53.4955 205.826 53.6845C205.826 53.7605 205.796 53.827 205.734 53.8835C205.673 53.9404 205.6 53.9691 205.516 53.9691H205.137C204.991 53.9691 204.876 53.916 204.792 53.8098C204.555 53.5065 204.138 53.3549 203.54 53.3549C203.188 53.3549 202.903 53.4195 202.685 53.5481C202.467 53.6773 202.358 53.8552 202.358 54.0824C202.358 54.2718 202.411 54.4163 202.518 54.5144C202.625 54.6129 202.786 54.6928 203.001 54.753C203.215 54.8138 203.594 54.9047 204.138 55.0262C204.812 55.1701 205.291 55.3902 205.574 55.6853C205.857 55.9809 205.999 56.3411 205.999 56.7658C205.999 57.0763 205.901 57.3647 205.706 57.6302C205.511 57.8956 205.232 58.1095 204.868 58.2726C204.504 58.4357 204.081 58.517 203.598 58.517C203.124 58.517 202.704 58.4433 202.341 58.2955C201.977 58.1473 201.696 57.9674 201.496 57.7555C201.297 57.5431 201.198 57.3422 201.198 57.1523C201.198 57.0768 201.228 57.0103 201.29 56.9534C201.351 56.8969 201.423 56.8682 201.508 56.8682H201.921C201.99 56.8682 202.051 56.8759 202.105 56.8912C202.158 56.906 202.208 56.9476 202.254 57.016C202.507 57.3647 202.955 57.5393 203.598 57.5393C203.958 57.5393 204.273 57.4656 204.546 57.3174C204.818 57.1695 204.954 56.9863 204.954 56.7663C204.954 56.5841 204.886 56.4382 204.753 56.3287C204.619 56.2191 204.425 56.1278 204.172 56.0555C203.92 55.9838 203.525 55.891 202.99 55.7771C201.871 55.5418 201.311 54.9774 201.311 54.0824Z" fill="#F1FAEE"/>
<path d="M208.433 51.5019C208.372 51.5626 208.299 51.5923 208.215 51.5923H207.561C207.477 51.5923 207.404 51.5622 207.343 51.5019C207.281 51.4416 207.251 51.3694 207.251 51.2857V50.638C207.251 50.5543 207.281 50.4826 207.343 50.4218C207.404 50.3616 207.477 50.3314 207.561 50.3314H208.215C208.299 50.3314 208.372 50.3616 208.433 50.4218C208.495 50.4826 208.525 50.5543 208.525 50.638V51.2857C208.525 51.3694 208.495 51.4411 208.433 51.5019ZM208.318 58.3123C208.257 58.373 208.184 58.4032 208.1 58.4032H207.675C207.591 58.4032 207.518 58.373 207.457 58.3123C207.395 58.252 207.365 58.1803 207.365 58.0966V52.7981C207.365 52.7144 207.396 52.6427 207.457 52.5819C207.518 52.5212 207.591 52.4911 207.675 52.4911H208.1C208.184 52.4911 208.257 52.5212 208.318 52.5819C208.38 52.6427 208.41 52.7144 208.41 52.7981V58.0966C208.411 58.1803 208.38 58.252 208.318 58.3123Z" fill="#F1FAEE"/>
<path d="M211.798 52.5872C212.028 52.447 212.334 52.3772 212.717 52.3772C213.613 52.3772 214.24 52.7068 214.6 53.3664C214.823 53.0478 215.075 52.8034 215.358 52.6331C215.642 52.4628 216.013 52.3772 216.473 52.3772C217.223 52.3772 217.78 52.6011 218.144 53.0478C218.507 53.4955 218.69 54.1284 218.69 54.9468V58.0965C218.69 58.1803 218.659 58.252 218.598 58.3123C218.536 58.373 218.464 58.4032 218.38 58.4032H217.955C217.87 58.4032 217.798 58.373 217.737 58.3123C217.675 58.252 217.645 58.1803 217.645 58.0965V55.0606C217.645 53.9232 217.193 53.3549 216.29 53.3549C215.876 53.3549 215.546 53.4912 215.301 53.7643C215.056 54.037 214.934 54.4426 214.934 54.9807V58.0965C214.934 58.1803 214.903 58.252 214.842 58.3123C214.781 58.373 214.709 58.4032 214.624 58.4032H214.199C214.115 58.4032 214.042 58.373 213.981 58.3123C213.92 58.252 213.889 58.1803 213.889 58.0965V55.0606C213.889 53.9232 213.437 53.3549 212.534 53.3549C212.121 53.3549 211.791 53.4912 211.546 53.7643C211.301 54.037 211.178 54.4426 211.178 54.9807V58.0965C211.178 58.1803 211.148 58.252 211.087 58.3123C211.025 58.373 210.953 58.4032 210.868 58.4032H210.443C210.359 58.4032 210.286 58.373 210.225 58.3123C210.164 58.252 210.134 58.1803 210.134 58.0965V52.7981C210.134 52.7144 210.164 52.6427 210.225 52.5819C210.286 52.5212 210.359 52.491 210.443 52.491H210.868C210.953 52.491 211.025 52.5212 211.087 52.5819C211.148 52.6427 211.178 52.7144 211.178 52.7981V53.1502C211.362 52.9153 211.569 52.7278 211.798 52.5872Z" fill="#F1FAEE"/>
<path d="M221.401 60.2571C221.401 60.3404 221.371 60.4121 221.31 60.4729C221.248 60.5336 221.176 60.5638 221.091 60.5638H220.666C220.582 60.5638 220.509 60.5336 220.448 60.4729C220.387 60.4121 220.357 60.3404 220.357 60.2571V52.7981C220.357 52.7144 220.387 52.6427 220.448 52.5819C220.509 52.5212 220.582 52.491 220.666 52.491H221.091C221.176 52.491 221.248 52.5212 221.31 52.5819C221.371 52.6427 221.401 52.7144 221.401 52.7981V53.1502C221.792 52.635 222.385 52.3772 223.182 52.3772C223.656 52.3772 224.087 52.4867 224.474 52.7068C224.861 52.9268 225.17 53.2411 225.405 53.6505C225.638 54.06 225.766 54.5373 225.789 55.0831C225.797 55.1591 225.8 55.2802 225.8 55.4471C225.8 55.6217 225.797 55.7465 225.789 55.8221C225.766 56.3683 225.638 56.8438 225.405 57.2489C225.171 57.655 224.863 57.9674 224.48 58.1874C224.097 58.407 223.664 58.5165 223.182 58.5165C222.753 58.5165 222.391 58.4429 222.096 58.2951C221.801 58.1468 221.57 57.9636 221.401 57.7435V60.2571ZM221.884 57.0959C222.182 57.3915 222.577 57.5393 223.066 57.5393C223.564 57.5393 223.961 57.38 224.256 57.0619C224.55 56.7434 224.713 56.3114 224.744 55.7657C224.751 55.6901 224.755 55.5834 224.755 55.4471C224.755 55.3108 224.751 55.2046 224.744 55.129C224.713 54.5828 224.55 54.1508 224.256 53.8327C223.961 53.5142 223.564 53.3549 223.066 53.3549C222.592 53.3549 222.201 53.5013 221.895 53.7931C221.588 54.0844 221.424 54.4732 221.401 54.9587L221.39 55.4021L221.401 55.857C221.424 56.3875 221.584 56.8003 221.884 57.0959Z" fill="#F1FAEE"/>
<path d="M228.178 58.3123C228.116 58.373 228.044 58.4032 227.959 58.4032H227.535C227.45 58.4032 227.378 58.373 227.316 58.3123C227.255 58.252 227.225 58.1803 227.225 58.0966V50.6375C227.225 50.5538 227.255 50.4821 227.316 50.4213C227.378 50.3611 227.45 50.3309 227.535 50.3309H227.959C228.044 50.3309 228.116 50.3611 228.178 50.4213C228.239 50.4821 228.27 50.5538 228.27 50.6375V58.0966C228.27 58.1803 228.239 58.252 228.178 58.3123Z" fill="#F1FAEE"/>
<path d="M234.288 53.1502C234.762 53.6658 235 54.367 235 55.2534V55.5609C235 55.6442 234.97 55.7159 234.909 55.7767C234.847 55.8374 234.775 55.8676 234.69 55.8676H230.739V55.936C230.754 56.4363 230.91 56.8285 231.204 57.1126C231.499 57.3972 231.88 57.5393 232.347 57.5393C232.73 57.5393 233.027 57.49 233.237 57.3915C233.448 57.293 233.637 57.1523 233.806 56.9706C233.867 56.9098 233.922 56.8682 233.973 56.8453C234.022 56.8228 234.089 56.8113 234.174 56.8113H234.518C234.61 56.8113 234.687 56.8414 234.748 56.9022C234.81 56.9629 234.836 57.0347 234.828 57.1179C234.798 57.3231 234.685 57.5331 234.49 57.7488C234.295 57.965 234.015 58.1468 233.651 58.2951C233.288 58.4429 232.854 58.5165 232.348 58.5165C231.858 58.5165 231.421 58.4051 231.039 58.1812C230.656 57.9578 230.351 57.6489 230.126 57.2547C229.899 56.8606 229.764 56.4172 229.717 55.9245C229.702 55.6968 229.694 55.5227 229.694 55.4012C229.694 55.2797 229.702 55.1056 229.717 54.8779C229.764 54.4082 229.899 53.9839 230.126 53.6046C230.351 53.2258 230.654 52.9263 231.033 52.7063C231.412 52.4863 231.85 52.3767 232.348 52.3767C233.166 52.3772 233.813 52.635 234.288 53.1502ZM233.966 54.9128V54.8789C233.966 54.4168 233.819 54.047 233.524 53.7706C233.23 53.4941 232.837 53.3554 232.347 53.3554C231.902 53.3554 231.525 53.496 231.215 53.7763C230.905 54.0571 230.746 54.424 230.739 54.8793V54.9133H233.966V54.9128Z" fill="#F1FAEE"/>
</svg>
